<svg xmlns="http://www.w3.org/2000/svg" width="17.602" height="13.201" viewBox="0 0 17.602 13.201">
  <path id="envelope-regular" d="M0,66.2A2.2,2.2,0,0,1,2.2,64H15.4a2.2,2.2,0,0,1,2.2,2.2V75a2.2,2.2,0,0,1-2.2,2.2H2.2A2.2,2.2,0,0,1,0,75Zm1.65,0v.76l5.93,4.868a1.918,1.918,0,0,0,2.441,0l5.93-4.868v-.791a.573.573,0,0,0-.55-.55H2.2a.572.572,0,0,0-.55.55Zm0,2.895V75a.551.551,0,0,0,.55.55H15.4a.552.552,0,0,0,.55-.55V69.095L11.07,73.1a3.619,3.619,0,0,1-4.569,0Z" transform="translate(0 -64)" fill="#fff"/>
</svg>
