<svg xmlns="http://www.w3.org/2000/svg" width="15.669" height="15.666" viewBox="0 0 15.669 15.666">
  <path id="instagram" d="M7.761,35.641a4.017,4.017,0,1,0,4.017,4.017A4.01,4.01,0,0,0,7.761,35.641Zm0,6.628a2.611,2.611,0,1,1,2.611-2.611A2.616,2.616,0,0,1,7.761,42.269Zm5.118-6.792a.937.937,0,1,1-.937-.937A.935.935,0,0,1,12.879,35.477Zm2.66.951a4.636,4.636,0,0,0-1.265-3.282,4.667,4.667,0,0,0-3.282-1.265c-1.293-.073-5.17-.073-6.464,0a4.66,4.66,0,0,0-3.282,1.262A4.651,4.651,0,0,0-.02,36.424c-.073,1.293-.073,5.17,0,6.464A4.636,4.636,0,0,0,1.246,46.17a4.673,4.673,0,0,0,3.282,1.265c1.293.073,5.17.073,6.464,0a4.636,4.636,0,0,0,3.282-1.265,4.667,4.667,0,0,0,1.265-3.282c.073-1.293.073-5.167,0-6.46Zm-1.671,7.848a2.644,2.644,0,0,1-1.489,1.489,17.265,17.265,0,0,1-4.618.315,17.4,17.4,0,0,1-4.618-.315,2.644,2.644,0,0,1-1.489-1.489,17.265,17.265,0,0,1-.315-4.618,17.4,17.4,0,0,1,.315-4.618,2.644,2.644,0,0,1,1.489-1.489,17.265,17.265,0,0,1,4.618-.315,17.4,17.4,0,0,1,4.618.315,2.644,2.644,0,0,1,1.489,1.489,17.265,17.265,0,0,1,.315,4.618A17.255,17.255,0,0,1,13.868,44.276Z" transform="translate(0.075 -31.825)" fill="#fff"/>
</svg>
